PathFileType  4	(X/Y/Z) C:\Users\antoi\Documents\MyRepositories\mobilecap\ResultsAnalysis
DataRate	CameraRate	NumFrames	NumMarkers	Units	OrigDataRate	OrigDataStartFrame	OrigNumFrames
100.0	100.0	4	51	mm	100.0	114	130
Frame#	Time	r_knee			r_shank_antsup			r_ankle			r_calc			r_5meta			r_toe			L_knee			L_shank_antsup			L_ankle			L_calc			L_5meta			L_toe			r_sh2			r_sh3			r_sh4			L_sh2			L_sh3			r_thigh1			r_thigh2			r_thigh3			r_thigh4			r_thigh5			L_thigh1			L_thigh2			L_thigh3			L_thigh4			r.ASIS			r.PSIS			L.ASIS			L.PSIS			C7			R_Shoulder			L_Shoulder			R_Sternum			L_Sternum			R_humerus			R_elbow_med			R_elbow_lat			R_forearm			R_wrist_radius			R_wrist_ulna			L_humerus			L_elbow_med			L_elbow_lat			L_forearm			L_wrist_radius			L_wrist_ulna			R_HJC			L_HJC			R_HJC_reg			L_HJC_reg			
		X1	Y1	Z1	X2	Y2	Z2	X3	Y3	Z3	X4	Y4	Z4	X5	Y5	Z5	X6	Y6	Z6	X7	Y7	Z7	X8	Y8	Z8	X9	Y9	Z9	X10	Y10	Z10	X11	Y11	Z11	X12	Y12	Z12	X13	Y13	Z13	X14	Y14	Z14	X15	Y15	Z15	X16	Y16	Z16	X17	Y17	Z17	X18	Y18	Z18	X19	Y19	Z19	X20	Y20	Z20	X21	Y21	Z21	X22	Y22	Z22	X23	Y23	Z23	X24	Y24	Z24	X25	Y25	Z25	X26	Y26	Z26	X27	Y27	Z27	X28	Y28	Z28	X29	Y29	Z29	X30	Y30	Z30	X31	Y31	Z31	X32	Y32	Z32	X33	Y33	Z33	X34	Y34	Z34	X35	Y35	Z35	X36	Y36	Z36	X37	Y37	Z37	X38	Y38	Z38	X39	Y39	Z39	X40	Y40	Z40	X41	Y41	Z41	X42	Y42	Z42	X43	Y43	Z43	X44	Y44	Z44	X45	Y45	Z45	X46	Y46	Z46	X47	Y47	Z47	X48	Y48	Z48	X49	Y49	Z49	X50	Y50	Z50	X51	Y51	Z51	

114	1.13000000	1398.16547	535.93901	-77.34578	1457.49417	457.12202	-93.82402	1489.47453	120.13484	-131.97179	1418.28051	70.14527	-172.22575	1624.32183	59.78721	-109.45034	1668.61577	104.43332	-175.03869	1118.59815	535.99006	-355.72435	1080.57607	446.39453	-371.65298	907.87255	163.60193	-283.68138	817.92516	137.27022	-222.58832	987.42275	48.46919	-310.48011	1052.43691	61.94509	-250.88630	1473.78959	347.29922	-75.58827	1394.97340	454.11534	-51.32668	1393.34803	337.13962	-52.31309	1004.72162	493.58677	-353.82259	956.82473	381.89568	-337.55005	1369.62279	858.74057	-41.39569	1408.82671	756.98518	-57.12309	1368.29741	711.45246	-25.45658	1267.98941	814.37785	-30.55799	1312.46506	709.58720	-40.54773	1252.88546	805.91845	-392.31781	1237.79822	668.69738	-372.24631	1143.97237	819.48583	-390.53133	1125.05377	684.00444	-378.30428	1329.41910	1066.06336	-82.82574	1143.36169	1053.88905	-129.03409	1305.18804	1060.62828	-336.16385	1129.99661	1061.25787	-237.25042	1204.33679	1617.52963	-200.06124	1261.53369	1539.42083	-31.45597	1227.54816	1543.46722	-369.55211	1310.76186	1508.05600	-174.41983	1304.06140	1506.63311	-231.81405	1227.60412	1377.79687	30.25168	1113.33429	1203.14537	-40.73238	1111.64243	1215.64217	42.91575	1112.66768	1044.59744	74.59597	1128.20893	947.31549	71.98767	1085.46548	965.74310	85.64389	1226.17265	1426.22266	-457.94780	1248.40293	1175.63852	-431.65627	1257.86368	1207.38050	-511.22468	1332.08083	1194.94946	-528.74145	1498.32118	1132.63901	-529.88057	1480.33094	1099.48473	-547.43249	1264.35990	940.11981	-94.82413	1234.61568	944.23454	-299.60021	1282.70637	965.49799	-119.68625	1262.16074	976.82950	-286.04022	
115	1.14000000	1408.41563	535.29771	-76.58805	1466.79252	455.56145	-93.56113	1493.53225	118.74335	-132.18172	1420.16516	71.30091	-172.25449	1626.34302	54.96711	-109.93628	1671.78362	97.89356	-175.74878	1138.91067	535.42979	-357.45359	1097.98990	447.34829	-373.46686	916.02165	170.64265	-285.30413	825.36691	149.32744	-223.59169	989.41551	49.86723	-310.68317	1054.75716	61.30113	-251.11659	1481.93141	345.45574	-75.59725	1404.59253	453.16273	-50.52023	1401.74923	336.23202	-51.57148	1024.07698	497.09796	-354.74730	972.27241	387.34716	-338.48544	1384.90968	858.89657	-41.72778	1422.45212	756.58872	-57.90366	1381.83310	711.74228	-25.64473	1282.83263	815.95437	-29.42076	1325.81695	710.51079	-39.82262	1270.96030	806.05241	-391.83918	1257.21334	668.65172	-372.97115	1162.04797	818.66371	-390.09793	1144.22581	682.90306	-378.54970	1345.68526	1067.11872	-82.12133	1159.57366	1055.20922	-128.08192	1321.32206	1060.90346	-335.14567	1146.24795	1061.89164	-236.42806	1218.12718	1618.25672	-198.88119	1275.80771	1540.28574	-30.46622	1240.92329	1544.38436	-368.40605	1324.96639	1509.12795	-173.49876	1318.13440	1507.70192	-230.92141	1242.77424	1378.49146	31.23625	1129.36830	1203.31696	-39.83294	1127.71801	1215.73552	43.87912	1129.82500	1044.65396	75.37779	1145.93810	947.49822	72.63929	1103.09596	965.65396	86.39581	1239.17150	1427.11991	-456.73331	1260.62729	1176.46136	-430.47284	1269.93858	1208.22671	-510.10542	1344.11667	1196.10608	-527.54320	1510.70245	1134.93618	-528.67976	1492.98725	1101.71063	-546.30488	1280.46341	941.27368	-93.51506	1250.66759	944.66489	-298.29744	1298.56520	966.97522	-118.26458	1278.11712	977.23546	-284.50977	
116	1.15000000	1418.71433	535.04223	-75.44400	1476.03121	454.34989	-93.01600	1497.03597	117.62029	-132.21691	1421.65160	72.17253	-172.24759	1627.79411	51.29623	-109.91489	1674.24683	92.45685	-176.04388	1160.69806	534.62884	-359.58771	1116.72606	448.45327	-375.63653	925.75264	178.36421	-287.12794	834.71966	162.90298	-224.75595	991.76063	51.96882	-310.86478	1057.55907	60.99016	-251.42692	1489.89270	343.96466	-75.24966	1414.35840	452.68222	-49.16976	1410.18487	335.82934	-49.97581	1044.99851	500.73421	-355.76497	989.28235	393.10592	-339.49919	1400.16992	859.41734	-42.01390	1436.00197	756.54364	-58.51419	1395.49052	712.50763	-25.45548	1297.70862	817.91025	-27.99183	1339.25114	711.79765	-38.63780	1289.67704	806.30555	-391.41240	1277.67677	668.65067	-374.01989	1180.66081	817.57284	-389.84661	1164.40827	681.49020	-379.16804	1361.81890	1068.42683	-81.34735	1175.60407	1056.71772	-127.15143	1337.34878	1061.26959	-334.05887	1162.33849	1062.60048	-235.67288	1231.86766	1619.12408	-197.66939	1290.25025	1541.30797	-29.49214	1254.17653	1545.43741	-367.24360	1339.17224	1510.35298	-172.62762	1332.17281	1508.92716	-230.04171	1258.30936	1379.32180	32.18652	1145.73906	1203.58800	-38.79242	1144.28483	1215.89111	44.98754	1147.65333	1044.77756	76.25952	1164.39613	947.73700	73.40947	1121.46122	965.58305	87.27570	1251.96483	1428.10477	-455.45869	1272.43885	1177.38430	-429.07284	1281.59238	1209.09125	-508.78408	1355.70165	1197.08886	-526.20000	1522.47350	1136.62567	-527.39798	1504.92000	1103.34423	-545.03591	1296.41845	942.66164	-92.10235	1266.64680	945.18404	-296.89892	1314.28119	968.71685	-116.68204	1293.96931	977.73136	-282.83291	
117	1.16000000	1429.13897	535.21356	-74.05064	1485.23350	453.50403	-92.37061	1499.88040	116.75827	-132.18537	1422.69307	72.76231	-172.23932	1628.69400	48.79694	-109.58652	1675.99204	88.16722	-176.17174	1183.92579	533.58046	-362.08361	1136.90071	449.67321	-378.12076	937.24269	186.74301	-289.21671	846.33132	178.01904	-226.21438	994.54706	54.96597	-311.04718	1060.94136	61.11393	-251.92119	1497.66134	342.84585	-74.73558	1424.31266	452.70859	-47.44347	1418.62780	335.94893	-47.72023	1067.55169	504.41546	-356.94738	1007.97568	399.03948	-340.63928	1415.34191	860.32929	-42.10281	1449.50773	756.92048	-58.85284	1409.24189	713.72652	-24.91946	1312.57256	820.19165	-26.23780	1352.79642	713.41704	-37.05414	1308.89458	806.66941	-391.07843	1299.10525	668.70930	-375.42031	1199.69843	816.18047	-389.78326	1185.53242	679.76533	-380.19082	1377.73121	1069.99656	-80.44733	1191.35025	1058.34071	-126.26538	1353.17448	1061.65387	-332.89754	1178.13668	1063.33248	-234.98629	1245.55586	1620.12293	-196.44489	1304.83868	1542.45431	-28.55339	1267.32484	1546.60701	-366.09780	1353.35051	1511.70440	-171.82471	1346.15089	1510.28330	-229.18864	1274.18444	1380.25378	33.07439	1162.40845	1203.92241	-37.59448	1161.32665	1216.07581	46.24896	1166.13250	1044.93913	77.25260	1183.58092	948.01466	74.31411	1140.53898	965.51350	88.28891	1264.56189	1429.14169	-454.14949	1283.86739	1178.37367	-427.46324	1292.84056	1209.93817	-507.28183	1366.86359	1197.87168	-524.73776	1533.67480	1137.70229	-526.04752	1516.17502	1104.37632	-543.63531	1312.13202	944.26667	-90.54825	1282.48040	945.72526	-295.36783	1329.83650	970.63015	-114.91012	1309.64816	978.26255	-281.00626	
